<?xml version="1.0" encoding="utf-8"?>
<!-- Svg Vector Icons : http://www.onlinewebfonts.com/icon -->
<!DOCTYPE svg PUBLIC "-//W3C//DTD SVG 1.1//EN" "http://www.w3.org/Graphics/SVG/1.1/DTD/svg11.dtd">
<svg version="1.1" xmlns="http://www.w3.org/2000/svg" xmlns:xlink="http://www.w3.org/1999/xlink" x="0px" y="0px" viewBox="0 0 1000 1000" enable-background="new 0 0 1000 1000" xml:space="preserve">
<metadata> Svg Vector Icons : http://www.onlinewebfonts.com/icon </metadata>
<g><path d="M500,10c231.5,0,419.9,92.3,419.9,205.6c0,113.3-188.4,205.5-419.9,205.5c-231.6,0-420-92.1-420-205.5C80,102.3,268.4,10,500,10 M500,10C268,10,80,102,80,215.6c0,113.6,188,205.6,420,205.6c231.9,0,420-92,420-205.6C920,102,731.9,10,500,10L500,10z"/><path d="M745,215.6c0,66.3-109.8,119.9-245,119.9c-135.4,0-245-53.6-245-119.9c0-66.3,109.6-120,245-120C635.2,95.6,745,149.3,745,215.6z"/><path d="M500,855.2c-232,0-420-92-420-205.6v134.8C80,898,268,990,500,990c231.9,0,420-92,420-205.6V649.6C920,763.2,731.9,855.2,500,855.2z"/><path d="M500,638.2c-232,0-420-92-420-205.6v134.8C80,680.9,268,773,500,773c231.9,0,420-92.1,420-205.6V432.6C920,546.2,731.9,638.2,500,638.2z"/><path d="M500,421.3c-232,0-420-92-420-205.6v134.7c0,113.6,188,205.6,420,205.6c231.9,0,420-92,420-205.6V215.6C920,329.2,731.9,421.3,500,421.3z"/></g>
</svg>